<svg xmlns="http://www.w3.org/2000/svg" preserveAspectRatio="xMidYMid" width="32.437" height="28.38"><path d="M29.411 28.388H3.044a3.042 3.042 0 0 1-3.042-3.042V7.092A3.042 3.042 0 0 1 3.044 4.05h7.15c-.022-.111-.051-.218-.051-.338V1.346c0-.747.454-1.353 1.014-1.353h10.141c.56 0 1.014.606 1.014 1.353v2.366c0 .12-.029.227-.051.338h7.15a3.042 3.042 0 0 1 3.042 3.042v18.254a3.042 3.042 0 0 1-3.042 3.042zM20.284 2.022h-8.113v1.014h8.113V2.022zm-4.056 5.07a9.127 9.127 0 1 0 0 18.253 9.127 9.127 0 0 0 0-18.253zm0 15.211a6.084 6.084 0 1 1-.001-12.169 6.084 6.084 0 0 1 .001 12.169zm0-8.112a2.028 2.028 0 1 0-.001 4.057 2.028 2.028 0 0 0 .001-4.057z" fill="#fff" fill-rule="evenodd"/></svg>