<svg xmlns="http://www.w3.org/2000/svg" preserveAspectRatio="xMidYMid" width="35.156" height="35.13"><path d="M32.958 35.132H6.603a2.196 2.196 0 0 1-2.196-2.196v-1.098h26.355v-17.57h-5.491v-3.294h7.687c1.213 0 2.196.983 2.196 2.196v19.766a2.196 2.196 0 0 1-2.196 2.196zm0-13.177a1.097 1.097 0 1 0-.002 2.194 1.097 1.097 0 0 0 .002-2.194zM21.977 30.74H2.211a2.197 2.197 0 0 1-2.196-2.197V2.189C.015.976.998-.007 2.211-.007h19.766c1.213 0 2.196.983 2.196 2.196v26.354a2.197 2.197 0 0 1-2.196 2.197zm-9.883-1.099a1.098 1.098 0 1 0 0-2.196 1.098 1.098 0 0 0 0 2.196zm8.785-26.354H3.309v23.06h17.57V3.287z" fill="#fff" fill-rule="evenodd"/></svg>