<svg xmlns="http://www.w3.org/2000/svg" preserveAspectRatio="xMidYMid" width="37.469" height="37.5"><path d="M37.466 14.063s-4.326 5.738-9.72 9.787l-.015-.048s.003.049-.001.06l.016-.012c2.205 7.343 2.693 13.637 2.693 13.637L18.746 30.38l-.019.006c-.008 0-.031-.011-.041-.013-5.709 3.948-11.672 7.114-11.672 7.114s.484-6.279 2.686-13.611l.016.013-.005-.05a.518.518 0 0 0-.011.037c-5.391-4.045-9.713-9.813-9.713-9.813l12.883-1.171L18.727.008l5.856 12.884 12.883 1.171z" fill="#fff" fill-rule="evenodd"/></svg>