<svg xmlns="http://www.w3.org/2000/svg" preserveAspectRatio="xMidYMid" width="270.625" height="195.69"><path d="M262.562 175.241h-40.07c-4.458 0-8.07-3.618-8.07-8.078a8.071 8.071 0 0 1 8.07-8.078h28.687c-5.722-7.694-17.467-15.273-24.05-18.555a8.089 8.089 0 0 1-3.633-10.828c1.983-3.992 6.822-5.622 10.807-3.645 3.718 1.846 36.329 18.665 36.329 41.106 0 4.46-3.612 8.078-8.07 8.078zm-68.257-46.807c-10.918 0-21.179-4.254-28.897-11.98a8.09 8.09 0 0 1 .002-11.429 8.071 8.071 0 0 1 11.415.005c4.668 4.676 10.875 7.248 17.48 7.248 13.634 0 24.725-11.102 24.725-24.755 0-13.643-11.091-24.745-24.725-24.745a24.61 24.61 0 0 0-9.625 1.946c-4.099 1.736-8.84-.189-10.574-4.302a8.08 8.08 0 0 1 4.295-10.582 40.598 40.598 0 0 1 15.904-3.218c22.534 0 40.865 18.349 40.865 40.901 0 22.562-18.331 40.911-40.865 40.911zm-89.36-3.986c-34.28 0-62.168-27.916-62.168-62.228 0-34.311 27.888-62.227 62.168-62.227s62.168 27.916 62.168 62.227c0 34.312-27.888 62.228-62.168 62.228zm0-102.913c-22.414 0-40.648 18.25-40.648 40.685 0 22.436 18.234 40.686 40.648 40.686s40.647-18.25 40.647-40.686c0-22.435-18.233-40.685-40.647-40.685zM86.674 128.803l18.271 15.477 18.276-15.477a10.73 10.73 0 0 1 10.203-2.042c17.935 5.696 76.454 26.733 76.454 58.157 0 5.949-4.819 10.771-10.76 10.771H10.775c-5.942 0-10.76-4.822-10.76-10.771 0-31.424 58.519-52.461 76.453-58.157a10.743 10.743 0 0 1 10.206 2.042zm-57.715 45.344h151.974c-10.232-8.661-29.548-18.37-48.434-24.986l-20.606 17.45a10.752 10.752 0 0 1-13.899 0l-20.601-17.45c-18.886 6.616-38.204 16.325-48.434 24.986z" fill="#e0e0e0" fill-rule="evenodd"/></svg>