<?xml version="1.0" encoding="utf-8"?><svg width="137" height="87" viewBox="0 0 137 87" xmlns="http://www.w3.org/2000/svg" xmlns:xlink="http://www.w3.org/1999/xlink"><svg preserveAspectRatio="xMidYMid" width="39.53" height="34.84" viewBox="-1 -1 39.53 34.84" id="Browser-Icon" x="62.620000000000005" xmlns="http://www.w3.org/2000/svg"><defs><style>.acls-1{fill:#fff;fill-rule:evenodd}</style></defs><path d="M-.006 32.847V3.521A3.518 3.518 0 0 1 3.513.002h30.5a3.519 3.519 0 0 1 3.519 3.519v29.326H-.006zM5.273 2.348a1.76 1.76 0 1 0 0 3.52 1.76 1.76 0 0 0 0-3.52zm5.865 0a1.76 1.76 0 1 0 0 3.52 1.76 1.76 0 0 0 0-3.52zm5.865 0a1.759 1.759 0 1 0 0 3.518 1.759 1.759 0 0 0 0-3.518zm18.183 5.865H2.34v22.289h32.846V8.213z" class="acls-1"/></svg><svg preserveAspectRatio="xMidYMid" width="34.44" height="30.38" viewBox="-1 -1 34.44 30.38" id="Camera" x="102.15" xmlns="http://www.w3.org/2000/svg"><defs><style>.bcls-1{fill:#fff;fill-rule:evenodd}</style></defs><path d="M29.411 28.388H3.044a3.042 3.042 0 0 1-3.042-3.042V7.092A3.042 3.042 0 0 1 3.044 4.05h7.15c-.022-.111-.051-.218-.051-.338V1.346c0-.747.454-1.353 1.014-1.353h10.141c.56 0 1.014.606 1.014 1.353v2.366c0 .12-.029.227-.051.338h7.15a3.042 3.042 0 0 1 3.042 3.042v18.254a3.042 3.042 0 0 1-3.042 3.042zM20.284 2.022h-8.113v1.014h8.113V2.022zm-4.056 5.07a9.127 9.127 0 1 0 0 18.253 9.127 9.127 0 0 0 0-18.253zm0 15.211a6.084 6.084 0 1 1-.001-12.169 6.084 6.084 0 0 1 .001 12.169zm0-8.112a2.028 2.028 0 1 0-.001 4.057 2.028 2.028 0 0 0 .001-4.057z" class="bcls-1"/></svg><svg preserveAspectRatio="xMidYMid" width="22.78" height="46.57" viewBox="-1 -1 22.78 46.57" id="Person-Icon" xmlns="http://www.w3.org/2000/svg"><defs><style>.ccls-1{fill:#fff;fill-rule:evenodd}</style></defs><path d="M10.395 14.864A7.424 7.424 0 1 1 10.397.016a7.424 7.424 0 0 1-.002 14.848zm10.393 2.969l-1.484 11.878-4.454 2.968v10.394s-2.241 1.484-4.455 1.484c-2.24 0-4.454-1.484-4.454-1.484V32.679l-4.454-2.968L.003 17.833s5.925-1.484 10.392-1.484c4.441 0 10.393 1.484 10.393 1.484z" class="ccls-1"/></svg><svg preserveAspectRatio="xMidYMid" width="39.47" height="39.5" viewBox="-1 -1 39.47 39.5" id="Star-Icon" y="46.57" xmlns="http://www.w3.org/2000/svg"><defs><style>.dcls-1{fill:#fff;fill-rule:evenodd}</style></defs><path d="M37.466 14.063s-4.326 5.738-9.72 9.787l-.015-.048s.003.049-.001.06l.016-.012c2.205 7.343 2.693 13.637 2.693 13.637L18.746 30.38l-.019.006c-.008 0-.031-.011-.041-.013-5.709 3.948-11.672 7.114-11.672 7.114s.484-6.279 2.686-13.611l.016.013-.005-.05a.518.518 0 0 0-.011.037c-5.391-4.045-9.713-9.813-9.713-9.813l12.883-1.171L18.727.008l5.856 12.884 12.883 1.171z" class="dcls-1"/></svg><svg preserveAspectRatio="xMidYMid" width="39.84" height="26.31" viewBox="-1 -1 39.84 26.31" id="Video-Icon" x="22.78" xmlns="http://www.w3.org/2000/svg"><defs><style>.ecls-1{fill:#fff;fill-rule:evenodd}</style></defs><path d="M37.843 24.31l-9.457-6.548v2.494a4.053 4.053 0 0 1-4.054 4.054H4.065a4.053 4.053 0 0 1-4.053-4.054V4.043A4.053 4.053 0 0 1 4.065-.01h20.267a4.053 4.053 0 0 1 4.054 4.053v2.495L37.843-.01v24.32z" class="ecls-1"/></svg><svg preserveAspectRatio="xMidYMid" width="37.16" height="37.13" viewBox="-1 -1 37.16 37.13" id="iPad-Icon" x="39.47" y="46.57" xmlns="http://www.w3.org/2000/svg"><defs><style>.fcls-1{fill:#fff;fill-rule:evenodd}</style></defs><path d="M32.958 35.132H6.603a2.196 2.196 0 0 1-2.196-2.196v-1.098H30.762v-17.57h-5.491v-3.294h7.687c1.213 0 2.196.983 2.196 2.196v19.766a2.196 2.196 0 0 1-2.196 2.196zm0-13.177a1.097 1.097 0 1 0-.002 2.194 1.097 1.097 0 0 0 .002-2.194zM21.977 30.74H2.211a2.197 2.197 0 0 1-2.196-2.197V2.189C.015.976.998-.007 2.211-.007h19.766c1.213 0 2.196.983 2.196 2.196v26.354a2.197 2.197 0 0 1-2.196 2.197zm-9.883-1.099a1.098 1.098 0 1 0 0-2.196 1.098 1.098 0 0 0 0 2.196zm8.785-26.354H3.309v23.06h17.57V3.287z" class="fcls-1"/></svg></svg>