<svg xmlns="http://www.w3.org/2000/svg" xmlns:xlink="http://www.w3.org/1999/xlink" preserveAspectRatio="xMidYMid" width="37.531" height="32.84" viewBox="0 0 37.531 32.84">
  <defs>
    <style>
      .cls-1 {
        fill: #fff;
        fill-rule: evenodd;
      }
    </style>
  </defs>
  <path d="M-0.006,32.847 L-0.006,3.521 C-0.006,1.577 1.569,0.002 3.513,0.002 L34.013,0.002 C35.956,0.002 37.532,1.577 37.532,3.521 L37.532,32.847 L-0.006,32.847 ZM5.273,2.348 C4.301,2.348 3.513,3.136 3.513,4.107 C3.513,5.079 4.301,5.867 5.273,5.867 C6.244,5.867 7.032,5.079 7.032,4.107 C7.032,3.136 6.244,2.348 5.273,2.348 ZM11.138,2.348 C10.166,2.348 9.378,3.136 9.378,4.107 C9.378,5.079 10.166,5.867 11.138,5.867 C12.110,5.867 12.898,5.079 12.898,4.107 C12.898,3.136 12.110,2.348 11.138,2.348 ZM17.003,2.348 C16.031,2.348 15.244,3.136 15.244,4.107 C15.244,5.079 16.031,5.867 17.003,5.867 C17.975,5.867 18.763,5.079 18.763,4.107 C18.763,3.136 17.975,2.348 17.003,2.348 ZM35.186,8.213 L2.340,8.213 L2.340,30.502 L35.186,30.502 L35.186,8.213 Z" class="cls-1"/>
</svg>
