<svg xmlns="http://www.w3.org/2000/svg" xmlns:xlink="http://www.w3.org/1999/xlink" preserveAspectRatio="xMidYMid" width="32.437" height="28.38" viewBox="0 0 32.437 28.38">
  <defs>
    <style>
      .cls-1 {
        fill: #fff;
        fill-rule: evenodd;
      }
    </style>
  </defs>
  <path d="M29.411,28.388 L3.044,28.388 C1.364,28.388 0.002,27.026 0.002,25.346 L0.002,7.092 C0.002,5.412 1.364,4.050 3.044,4.050 L10.194,4.050 C10.172,3.939 10.143,3.832 10.143,3.712 L10.143,1.346 C10.143,0.599 10.597,-0.007 11.157,-0.007 L21.298,-0.007 C21.858,-0.007 22.312,0.599 22.312,1.346 L22.312,3.712 C22.312,3.832 22.283,3.939 22.261,4.050 L29.411,4.050 C31.091,4.050 32.453,5.412 32.453,7.092 L32.453,25.346 C32.453,27.026 31.091,28.388 29.411,28.388 ZM20.284,2.022 L12.171,2.022 L12.171,3.036 L20.284,3.036 L20.284,2.022 ZM16.228,7.092 C11.187,7.092 7.101,11.178 7.101,16.219 C7.101,21.259 11.187,25.346 16.228,25.346 C21.268,25.346 25.354,21.259 25.354,16.219 C25.354,11.178 21.268,7.092 16.228,7.092 ZM16.228,22.303 C12.867,22.303 10.143,19.579 10.143,16.219 C10.143,12.858 12.867,10.135 16.228,10.135 C19.588,10.135 22.312,12.858 22.312,16.219 C22.312,19.579 19.588,22.303 16.228,22.303 ZM16.228,14.191 C15.107,14.191 14.199,15.099 14.199,16.219 C14.199,17.339 15.107,18.247 16.228,18.247 C17.348,18.247 18.256,17.339 18.256,16.219 C18.256,15.099 17.348,14.191 16.228,14.191 Z" class="cls-1"/>
</svg>
