<svg xmlns="http://www.w3.org/2000/svg" aria-hidden="true" data-prefix="fas" data-icon="envelope" class="svg-inline--fa fa-envelope fa-w-16" role="img" viewBox="0 0 512 512" width="100%" height="100%"  xmlns:xlink="http://www.w3.org/1999/xlink"><rect id="svgEditorBackground" x="0" y="0" width="512" height="512" style="fill:none;stroke:none;"/><path d="M502.3,190.8c3.8999999999999773,-3.0999999999999943,9.699999999999989,-0.19999999999998863,9.699999999999989,4.699999999999989v204.5c0,26.5,-21.5,48,-48,48h-416c-26.5,0,-48,-21.5,-48,-48v-204.4c0,-5,5.7,-7.800000000000011,9.7,-4.699999999999989c22.399999999999995,17.400000000000006,52.099999999999994,39.5,154.1,113.6c21.099999999999994,15.399999999999977,56.70000000000002,47.80000000000001,92.20000000000002,47.60000000000002c35.69999999999999,0.30000000000001137,72,-32.80000000000001,92.30000000000001,-47.60000000000002c102,-74.1,131.59999999999997,-96.30000000000001,154,-113.69999999999999ZM256,320c23.19999999999999,0.39999999999997726,56.60000000000002,-29.19999999999999,73.39999999999998,-41.39999999999998c132.7,-96.30000000000001,142.8,-104.69999999999999,173.39999999999998,-128.7c5.800000000000011,-4.5,9.199999999999989,-11.5,9.199999999999989,-18.900000000000006v-19c0,-26.5,-21.5,-48,-48,-48h-415.99999999999994c-26.5,-2.842170943040401e-14,-48,21.49999999999997,-48,47.99999999999997v19c0,7.400000000000006,3.4,14.300000000000011,9.2,18.900000000000006c30.599999999999998,23.900000000000006,40.7,32.400000000000006,173.4,128.70000000000002c16.80000000000001,12.199999999999989,50.20000000000002,41.80000000000001,73.4,41.39999999999998Z" style="fill:white;"/></svg>