<svg xmlns="http://www.w3.org/2000/svg" aria-hidden="true" data-prefix="fab" data-icon="google-plus-g" class="svg-inline--fa fa-google-plus-g fa-w-20" role="img" viewBox="0 0 640 512" width="100%" height="100%"  xmlns:xlink="http://www.w3.org/1999/xlink"><rect id="svgEditorBackground" x="0" y="0" width="640" height="512" style="fill:none;stroke:none;"/><path d="M386.061,228.496c1.8340000000000032,9.692000000000007,3.1429999999999723,19.383999999999986,3.1429999999999723,31.95599999999999c5.684341886080802e-14,109.75299999999999,-73.60499999999996,187.548,-184.40399999999994,187.548c-106.084,0,-192,-85.91500000000002,-192,-192s85.916,-192,192,-192c51.863999999999976,0,95.08300000000003,18.85900000000001,128.611,50.292l-52.125999999999976,50.03c-14.144999999999982,-13.62100000000001,-39.02799999999999,-29.59899999999999,-76.48500000000001,-29.59899999999999c-65.48399999999998,0,-118.92,54.221000000000004,-118.92,121.27699999999999c0,67.05599999999998,53.43599999999999,121.27699999999999,118.92,121.27699999999999c75.96100000000001,0,104.51299999999998,-54.745000000000005,108.96499999999997,-82.77299999999997h-108.96499999999997v-66.00900000000001h181.26100000000002ZM571.467,234.93300000000002v-55.73300000000003h-56.000999999999976v55.733000000000004h-55.733000000000004v56.000999999999976h55.733000000000004v55.733000000000004h56.000999999999976v-55.733000000000004h55.73300000000006v-56.001000000000005h-55.73299999999995Z" style="fill:white;"/></svg>