<svg xmlns="http://www.w3.org/2000/svg" xmlns:xlink="http://www.w3.org/1999/xlink" preserveAspectRatio="xMidYMid" width="35.156" height="35.13" viewBox="0 0 35.156 35.13">
  <defs>
    <style>
      .cls-1 {
        fill: #fff;
        fill-rule: evenodd;
      }
    </style>
  </defs>
  <path d="M32.958,35.132 L6.603,35.132 C5.390,35.132 4.407,34.149 4.407,32.936 L4.407,31.838 L7.702,31.838 L25.271,31.838 L30.762,31.838 L30.762,14.268 L25.271,14.268 L25.271,10.974 L32.958,10.974 C34.171,10.974 35.154,11.957 35.154,13.170 L35.154,32.936 C35.154,34.149 34.171,35.132 32.958,35.132 ZM32.958,21.955 C32.351,21.955 31.860,22.446 31.860,23.053 C31.860,23.659 32.351,24.151 32.958,24.151 C33.564,24.151 34.056,23.659 34.056,23.053 C34.056,22.446 33.564,21.955 32.958,21.955 ZM21.977,30.740 L2.211,30.740 C0.998,30.740 0.015,29.756 0.015,28.543 L0.015,2.189 C0.015,0.976 0.998,-0.007 2.211,-0.007 L21.977,-0.007 C23.190,-0.007 24.173,0.976 24.173,2.189 L24.173,28.543 C24.173,29.756 23.190,30.740 21.977,30.740 ZM12.094,29.641 C12.700,29.641 13.192,29.150 13.192,28.543 C13.192,27.937 12.700,27.445 12.094,27.445 C11.487,27.445 10.996,27.937 10.996,28.543 C10.996,29.150 11.487,29.641 12.094,29.641 ZM20.879,3.287 L3.309,3.287 L3.309,26.347 L20.879,26.347 L20.879,3.287 Z" class="cls-1"/>
</svg>
