<svg xmlns="http://www.w3.org/2000/svg" aria-hidden="true" data-prefix="fas" data-icon="mobile-alt" class="svg-inline--fa fa-mobile-alt fa-w-10" role="img" viewBox="0 0 320 512" width="100%" height="100%"  xmlns:xlink="http://www.w3.org/1999/xlink"><rect id="svgEditorBackground" x="0" y="0" width="320" height="512" style="fill:none;stroke:none;"/><path d="M272,0h-224c-26.5,0,-48,21.5,-48,48v416c0,26.5,21.5,48,48,48h224c26.5,0,48,-21.5,48,-48v-416c0,-26.5,-21.5,-48,-48,-48ZM160,480c-17.69999999999999,0,-32,-14.300000000000011,-32,-32s14.300000000000011,-32,32,-32s32,14.300000000000011,32,32s-14.300000000000011,32,-32,32ZM272,372c0,6.600000000000023,-5.399999999999977,12,-12,12h-200c-6.600000000000001,0,-12,-5.399999999999977,-12,-12v-312c0,-6.600000000000001,5.399999999999999,-12,12,-12h200c6.600000000000023,0,12,5.399999999999999,12,12v312Z" style="fill:white;"/></svg>