<svg xmlns="http://www.w3.org/2000/svg" xmlns:xlink="http://www.w3.org/1999/xlink" preserveAspectRatio="xMidYMid" width="20.781" height="44.57" viewBox="0 0 20.781 44.57">
  <defs>
    <style>
      .cls-1 {
        fill: #fff;
        fill-rule: evenodd;
      }
    </style>
  </defs>
  <path d="M10.395,14.864 C6.296,14.864 2.972,11.540 2.972,7.440 C2.972,3.340 6.296,0.017 10.395,0.017 C14.495,0.017 17.819,3.340 17.819,7.440 C17.819,11.540 14.495,14.864 10.395,14.864 ZM20.788,17.833 L19.304,29.711 L14.850,32.679 L14.850,43.073 C14.850,43.073 12.609,44.557 10.395,44.557 C8.155,44.557 5.941,43.073 5.941,43.073 L5.941,32.679 L1.487,29.711 L0.003,17.833 C0.003,17.833 5.928,16.349 10.395,16.349 C14.836,16.349 20.788,17.833 20.788,17.833 Z" class="cls-1"/>
</svg>
