<svg xmlns="http://www.w3.org/2000/svg" aria-hidden="true" data-prefix="fab" data-icon="pinterest-p" class="svg-inline--fa fa-pinterest-p fa-w-12" role="img" viewBox="0 0 384 512" width="100%" height="100%"  xmlns:xlink="http://www.w3.org/1999/xlink"><rect id="svgEditorBackground" x="0" y="0" width="384" height="512" style="fill:none;stroke:none;"/><path d="M204,6.5c-102.6,0,-204,68.4,-204,179.1c0,70.4,39.6,110.4,63.6,110.4c9.899999999999999,0,15.600000000000001,-27.600000000000023,15.600000000000001,-35.39999999999998c0,-9.300000000000011,-23.700000000000003,-29.099999999999994,-23.700000000000003,-67.80000000000001c0,-80.4,61.2,-137.4,140.4,-137.4c68.1,0,118.49999999999997,38.7,118.49999999999997,109.79999999999998c0,53.099999999999994,-21.30000000000001,152.7,-90.30000000000001,152.7c-24.900000000000006,0,-46.19999999999999,-18,-46.19999999999999,-43.80000000000001c0,-37.80000000000001,26.400000000000006,-74.4,26.400000000000006,-113.4c0,-66.2,-93.9,-54.2,-93.9,25.80000000000001c0,16.80000000000001,2.0999999999999943,35.400000000000006,9.599999999999994,50.70000000000002c-13.799999999999997,59.39999999999998,-42,147.90000000000003,-42,209.09999999999997c0,18.899999999999977,2.700000000000003,37.5,4.5,56.39999999999998c3.4000000000000057,3.8000000000000114,1.7000000000000028,3.3999999999999773,6.900000000000006,1.5c50.400000000000006,-69,48.599999999999994,-82.5,71.4,-172.8c12.300000000000011,23.399999999999977,44.099999999999994,36,69.29999999999998,36c106.19999999999999,0,153.90000000000003,-103.5,153.90000000000003,-196.8c0,-99.29999999999991,-85.80000000000001,-164.0999999999999,-180,-164.0999999999999Z" style="fill:white;"/></svg>