<svg xmlns="http://www.w3.org/2000/svg" xmlns:xlink="http://www.w3.org/1999/xlink" preserveAspectRatio="xMidYMid" width="37.469" height="37.5" viewBox="0 0 37.469 37.5">
  <defs>
    <style>
      .cls-1 {
        fill: #fff;
        fill-rule: evenodd;
      }
    </style>
  </defs>
  <path d="M37.466,14.063 C37.466,14.063 33.140,19.801 27.746,23.850 C27.741,23.834 27.731,23.802 27.731,23.802 C27.731,23.802 27.734,23.851 27.730,23.862 C27.735,23.858 27.740,23.854 27.746,23.850 C29.951,31.193 30.439,37.487 30.439,37.487 L18.746,30.380 C18.746,30.380 18.730,30.386 18.727,30.386 C18.719,30.386 18.696,30.375 18.686,30.373 C12.977,34.321 7.014,37.487 7.014,37.487 C7.014,37.487 7.498,31.208 9.700,23.876 C9.705,23.880 9.716,23.889 9.716,23.889 C9.716,23.889 9.713,23.855 9.711,23.839 C9.707,23.851 9.703,23.864 9.700,23.876 C4.309,19.831 -0.013,14.063 -0.013,14.063 L12.870,12.892 L18.727,0.008 L24.583,12.892 L37.466,14.063 Z" class="cls-1"/>
</svg>
