<svg xmlns="http://www.w3.org/2000/svg" aria-hidden="true" data-prefix="fab" data-icon="twitter" class="svg-inline--fa fa-twitter fa-w-16" role="img" viewBox="0 0 512 512" width="100%" height="100%"  xmlns:xlink="http://www.w3.org/1999/xlink"><rect id="svgEditorBackground" x="0" y="0" width="512" height="512" style="fill:none;stroke:none;"/><path d="M459.37,151.716c0.32499999999998863,4.548000000000002,0.32499999999998863,9.097000000000008,0.32499999999998863,13.64500000000001c0,138.72,-105.58300000000003,298.558,-298.558,298.558c-59.452,0,-114.68,-17.218999999999994,-161.137,-47.105999999999995c8.447,0.9739999999999895,16.568,1.2989999999999782,25.34,1.2989999999999782c49.05499999999999,0,94.213,-16.567999999999984,130.274,-44.831999999999994c-46.132000000000005,-0.9750000000000227,-84.792,-31.187999999999988,-98.112,-72.77199999999999c6.498000000000005,0.9739999999999895,12.995000000000005,1.6240000000000236,19.817999999999998,1.6240000000000236c9.421000000000006,0,18.843000000000004,-1.3000000000000114,27.614000000000004,-3.572999999999979c-48.081,-9.747000000000014,-84.143,-51.97999999999999,-84.143,-102.98500000000001v-1.2990000000000066c13.969000000000001,7.796999999999997,30.214,12.669999999999987,47.431,13.318999999999988c-28.263999999999996,-18.84299999999999,-46.781,-51.004999999999995,-46.781,-87.391c0,-19.492000000000004,5.196999999999999,-37.36,14.294000000000004,-52.95399999999999c51.655,63.67499999999998,129.3,105.25800000000001,216.365,109.80699999999999c-1.6239999999999952,-7.796999999999997,-2.5989999999999895,-15.918000000000006,-2.5989999999999895,-24.039999999999992c0,-57.828,46.78199999999998,-104.934,104.93400000000003,-104.934c30.213000000000022,0,57.50200000000001,12.670000000000002,76.67000000000002,33.137c23.714999999999975,-4.548000000000002,46.45600000000002,-13.319999999999993,66.59899999999999,-25.340000000000003c-7.798000000000002,24.366,-24.365999999999985,44.833,-46.132000000000005,57.827c21.11700000000002,-2.272999999999996,41.584,-8.122,60.42599999999999,-16.242999999999995c-14.291999999999973,20.790999999999997,-32.161,39.30799999999999,-52.627999999999986,54.253000000000014Z" style="fill:white;"/></svg>