<svg xmlns="http://www.w3.org/2000/svg" xmlns:xlink="http://www.w3.org/1999/xlink" preserveAspectRatio="xMidYMid" width="270.625" height="195.69" viewBox="0 0 270.625 195.69">
  <defs>
    <style>
      .cls-1 {
        fill: #e0e0e0;
        fill-rule: evenodd;
      }
    </style>
  </defs>
  <path d="M262.562,175.241 L222.492,175.241 C218.034,175.241 214.422,171.623 214.422,167.163 C214.422,162.698 218.034,159.085 222.492,159.085 L251.179,159.085 C245.457,151.391 233.712,143.812 227.129,140.530 C223.144,138.542 221.515,133.694 223.496,129.702 C225.479,125.710 230.318,124.080 234.303,126.057 C238.021,127.903 270.632,144.722 270.632,167.163 C270.632,171.623 267.020,175.241 262.562,175.241 ZM194.305,128.434 C183.387,128.434 173.126,124.180 165.408,116.454 C162.258,113.298 162.258,108.181 165.410,105.025 C168.563,101.875 173.672,101.875 176.825,105.030 C181.493,109.706 187.700,112.278 194.305,112.278 C207.939,112.278 219.030,101.176 219.030,87.523 C219.030,73.880 207.939,62.778 194.305,62.778 C190.969,62.778 187.729,63.436 184.680,64.724 C180.581,66.460 175.840,64.535 174.106,60.422 C172.372,56.314 174.295,51.576 178.401,49.840 C183.448,47.705 188.798,46.622 194.305,46.622 C216.839,46.622 235.170,64.971 235.170,87.523 C235.170,110.085 216.839,128.434 194.305,128.434 ZM104.945,124.448 C70.665,124.448 42.777,96.532 42.777,62.220 C42.777,27.909 70.665,-0.007 104.945,-0.007 C139.225,-0.007 167.113,27.909 167.113,62.220 C167.113,96.532 139.225,124.448 104.945,124.448 ZM104.945,21.535 C82.531,21.535 64.297,39.785 64.297,62.220 C64.297,84.656 82.531,102.906 104.945,102.906 C127.359,102.906 145.592,84.656 145.592,62.220 C145.592,39.785 127.359,21.535 104.945,21.535 ZM86.674,128.803 L104.945,144.280 L123.221,128.803 C126.042,126.409 129.901,125.636 133.424,126.761 C151.359,132.457 209.878,153.494 209.878,184.918 C209.878,190.867 205.059,195.689 199.118,195.689 L10.775,195.689 C4.833,195.689 0.015,190.867 0.015,184.918 C0.015,153.494 58.534,132.457 76.468,126.761 C79.986,125.636 83.845,126.409 86.674,128.803 ZM28.959,174.147 L180.933,174.147 C170.701,165.486 151.385,155.777 132.499,149.161 L111.893,166.611 C107.884,170.008 102.008,170.008 97.994,166.611 L77.393,149.161 C58.507,155.777 39.189,165.486 28.959,174.147 Z" class="cls-1"/>
</svg>
